<mxfile host="app.diagrams.net" modified="2023-11-22T03:11:08.836Z" agent="Mozilla/5.0 (Macintosh; Intel Mac OS X 10_15_7) AppleWebKit/537.36 (KHTML, like Gecko) Chrome/119.0.0.0 Safari/537.36" etag="i20DX2WKFY_oV8UYHQbK" version="22.1.3" type="github">
  <diagram name="第 1 页" id="OHvzYQvvOX94lxVfNjPB">
    <mxGraphModel dx="954" dy="585" grid="1" gridSize="10" guides="1" tooltips="1" connect="1" arrows="1" fold="1" page="1" pageScale="1" pageWidth="827" pageHeight="1169" math="0" shadow="0">
      <root>
        <mxCell id="0" />
        <mxCell id="1" parent="0" />
        <mxCell id="VYQc9DKy9v42-T7aidAJ-22" value="Horizontal Flow Layout" style="swimlane;html=1;startSize=20;horizontal=0;childLayout=flowLayout;flowOrientation=west;resizable=0;interRankCellSpacing=50;containerType=tree;fontSize=12;labelBackgroundColor=none;fillColor=#FAE5C7;strokeColor=#0F8B8D;fontColor=#143642;" vertex="1" parent="1">
          <mxGeometry x="34" y="320" width="1170" height="250" as="geometry" />
        </mxCell>
        <mxCell id="VYQc9DKy9v42-T7aidAJ-23" value="服务启动" style="whiteSpace=wrap;html=1;labelBackgroundColor=none;fillColor=#FAE5C7;strokeColor=#0F8B8D;fontColor=#143642;" vertex="1" parent="VYQc9DKy9v42-T7aidAJ-22">
          <mxGeometry x="40" y="96.93142361111111" width="100" height="40" as="geometry" />
        </mxCell>
        <mxCell id="VYQc9DKy9v42-T7aidAJ-56" value="" style="edgeStyle=orthogonalEdgeStyle;rounded=0;orthogonalLoop=1;jettySize=auto;html=1;noEdgeStyle=1;orthogonal=1;labelBackgroundColor=none;fontColor=default;strokeColor=#A8201A;" edge="1" source="VYQc9DKy9v42-T7aidAJ-23" target="VYQc9DKy9v42-T7aidAJ-57" parent="VYQc9DKy9v42-T7aidAJ-22">
          <mxGeometry relative="1" as="geometry">
            <Array as="points">
              <mxPoint x="152" y="116.93142361111111" />
              <mxPoint x="178" y="116.93142361111111" />
            </Array>
          </mxGeometry>
        </mxCell>
        <mxCell id="VYQc9DKy9v42-T7aidAJ-57" value="扫描监听" style="whiteSpace=wrap;html=1;labelBackgroundColor=none;fillColor=#FAE5C7;strokeColor=#0F8B8D;fontColor=#143642;" vertex="1" parent="VYQc9DKy9v42-T7aidAJ-22">
          <mxGeometry x="190" y="96.93142361111111" width="100" height="40" as="geometry" />
        </mxCell>
        <mxCell id="VYQc9DKy9v42-T7aidAJ-58" value="" style="edgeStyle=orthogonalEdgeStyle;rounded=0;orthogonalLoop=1;jettySize=auto;html=1;noEdgeStyle=1;orthogonal=1;labelBackgroundColor=none;fontColor=default;strokeColor=#A8201A;" edge="1" target="VYQc9DKy9v42-T7aidAJ-64" source="VYQc9DKy9v42-T7aidAJ-57" parent="VYQc9DKy9v42-T7aidAJ-22">
          <mxGeometry relative="1" as="geometry">
            <mxPoint x="2960" y="2005.9259259259263" as="sourcePoint" />
            <Array as="points">
              <mxPoint x="302" y="116.93142361111111" />
              <mxPoint x="328" y="115.37326388888889" />
            </Array>
          </mxGeometry>
        </mxCell>
        <mxCell id="VYQc9DKy9v42-T7aidAJ-59" value="是否已创建" style="whiteSpace=wrap;html=1;shape=rhombus;perimeter=rhombusPerimeter;labelBackgroundColor=none;fillColor=#FAE5C7;strokeColor=#0F8B8D;fontColor=#143642;" vertex="1" parent="VYQc9DKy9v42-T7aidAJ-22">
          <mxGeometry x="490" y="62.25694444444444" width="100" height="100" as="geometry" />
        </mxCell>
        <mxCell id="VYQc9DKy9v42-T7aidAJ-60" value="" style="edgeStyle=orthogonalEdgeStyle;rounded=0;orthogonalLoop=1;jettySize=auto;html=1;noEdgeStyle=1;orthogonal=1;labelBackgroundColor=none;fontColor=default;strokeColor=#A8201A;" edge="1" target="VYQc9DKy9v42-T7aidAJ-61" source="VYQc9DKy9v42-T7aidAJ-59" parent="VYQc9DKy9v42-T7aidAJ-22">
          <mxGeometry relative="1" as="geometry">
            <mxPoint x="3010" y="1915.9259259259263" as="sourcePoint" />
            <Array as="points">
              <mxPoint x="602" y="89.75694444444444" />
              <mxPoint x="615" y="70" />
              <mxPoint x="765" y="70" />
              <mxPoint x="765" y="70" />
              <mxPoint x="895" y="70" />
              <mxPoint x="908" y="47.5" />
            </Array>
          </mxGeometry>
        </mxCell>
        <mxCell id="VYQc9DKy9v42-T7aidAJ-65" value="是" style="edgeLabel;html=1;align=center;verticalAlign=middle;resizable=0;points=[];labelBackgroundColor=none;fontColor=#143642;" vertex="1" connectable="0" parent="VYQc9DKy9v42-T7aidAJ-60">
          <mxGeometry x="0.16" y="-1" relative="1" as="geometry">
            <mxPoint as="offset" />
          </mxGeometry>
        </mxCell>
        <mxCell id="VYQc9DKy9v42-T7aidAJ-61" value="创建监听器" style="whiteSpace=wrap;html=1;shape=label;rounded=0;labelBackgroundColor=none;fillColor=#FAE5C7;strokeColor=#0F8B8D;fontColor=#143642;" vertex="1" parent="VYQc9DKy9v42-T7aidAJ-22">
          <mxGeometry x="920" y="20" width="100" height="100" as="geometry" />
        </mxCell>
        <mxCell id="VYQc9DKy9v42-T7aidAJ-63" value="" style="edgeStyle=orthogonalEdgeStyle;rounded=0;orthogonalLoop=1;jettySize=auto;html=1;noEdgeStyle=1;orthogonal=1;labelBackgroundColor=none;fontColor=default;strokeColor=#A8201A;" edge="1" target="VYQc9DKy9v42-T7aidAJ-59" source="VYQc9DKy9v42-T7aidAJ-64" parent="VYQc9DKy9v42-T7aidAJ-22">
          <mxGeometry relative="1" as="geometry">
            <mxPoint x="2710" y="1835.9259259259263" as="sourcePoint" />
            <Array as="points">
              <mxPoint x="452" y="115.37326388888889" />
              <mxPoint x="478" y="112.25694444444446" />
            </Array>
          </mxGeometry>
        </mxCell>
        <mxCell id="VYQc9DKy9v42-T7aidAJ-64" value="查询消费组" style="whiteSpace=wrap;html=1;shape=label;rounded=0;labelBackgroundColor=none;fillColor=#FAE5C7;strokeColor=#0F8B8D;fontColor=#143642;" vertex="1" parent="VYQc9DKy9v42-T7aidAJ-22">
          <mxGeometry x="340" y="65.37326388888889" width="100" height="100" as="geometry" />
        </mxCell>
        <mxCell id="VYQc9DKy9v42-T7aidAJ-68" value="" style="edgeStyle=orthogonalEdgeStyle;rounded=0;orthogonalLoop=1;jettySize=auto;html=1;noEdgeStyle=1;orthogonal=1;labelBackgroundColor=none;fontColor=default;strokeColor=#A8201A;" edge="1" target="VYQc9DKy9v42-T7aidAJ-69" source="VYQc9DKy9v42-T7aidAJ-59" parent="VYQc9DKy9v42-T7aidAJ-22">
          <mxGeometry relative="1" as="geometry">
            <mxPoint x="2540" y="1675.9259259259263" as="sourcePoint" />
            <Array as="points">
              <mxPoint x="602" y="134.75694444444446" />
              <mxPoint x="628" y="140" />
            </Array>
          </mxGeometry>
        </mxCell>
        <mxCell id="VYQc9DKy9v42-T7aidAJ-71" value="否" style="edgeLabel;html=1;align=center;verticalAlign=middle;resizable=0;points=[];labelBackgroundColor=none;fontColor=#143642;" vertex="1" connectable="0" parent="VYQc9DKy9v42-T7aidAJ-68">
          <mxGeometry x="0.0381" y="1" relative="1" as="geometry">
            <mxPoint as="offset" />
          </mxGeometry>
        </mxCell>
        <mxCell id="VYQc9DKy9v42-T7aidAJ-70" style="edgeStyle=orthogonalEdgeStyle;rounded=0;orthogonalLoop=1;jettySize=auto;html=1;exitX=1;exitY=0.5;exitDx=0;exitDy=0;entryX=0;entryY=0.5;entryDx=0;entryDy=0;noEdgeStyle=1;orthogonal=1;labelBackgroundColor=none;fontColor=default;strokeColor=#A8201A;" edge="1" parent="VYQc9DKy9v42-T7aidAJ-22" source="VYQc9DKy9v42-T7aidAJ-129" target="VYQc9DKy9v42-T7aidAJ-61">
          <mxGeometry relative="1" as="geometry">
            <Array as="points">
              <mxPoint x="882" y="122.5" />
              <mxPoint x="908" y="92.5" />
            </Array>
          </mxGeometry>
        </mxCell>
        <mxCell id="VYQc9DKy9v42-T7aidAJ-131" value="是" style="edgeLabel;html=1;align=center;verticalAlign=middle;resizable=0;points=[];labelBackgroundColor=none;fontColor=#143642;" vertex="1" connectable="0" parent="VYQc9DKy9v42-T7aidAJ-70">
          <mxGeometry x="-0.1947" y="3" relative="1" as="geometry">
            <mxPoint x="1" as="offset" />
          </mxGeometry>
        </mxCell>
        <mxCell id="VYQc9DKy9v42-T7aidAJ-69" value="创建消费组" style="whiteSpace=wrap;html=1;shape=label;rounded=0;labelBackgroundColor=none;fillColor=#FAE5C7;strokeColor=#0F8B8D;fontColor=#143642;" vertex="1" parent="VYQc9DKy9v42-T7aidAJ-22">
          <mxGeometry x="640" y="110" width="100" height="60" as="geometry" />
        </mxCell>
        <mxCell id="VYQc9DKy9v42-T7aidAJ-128" value="" style="edgeStyle=orthogonalEdgeStyle;rounded=0;orthogonalLoop=1;jettySize=auto;html=1;exitX=1;exitY=0.5;exitDx=0;exitDy=0;entryX=0;entryY=0.5;entryDx=0;entryDy=0;noEdgeStyle=1;orthogonal=1;labelBackgroundColor=none;fontColor=default;strokeColor=#A8201A;" edge="1" parent="VYQc9DKy9v42-T7aidAJ-22" source="VYQc9DKy9v42-T7aidAJ-69" target="VYQc9DKy9v42-T7aidAJ-129">
          <mxGeometry relative="1" as="geometry">
            <mxPoint x="1814" y="1057.7777777777778" as="sourcePoint" />
            <mxPoint x="1864" y="1027.7777777777778" as="targetPoint" />
            <Array as="points">
              <mxPoint x="752" y="140" />
              <mxPoint x="778" y="140" />
            </Array>
          </mxGeometry>
        </mxCell>
        <mxCell id="VYQc9DKy9v42-T7aidAJ-129" value="是否成功" style="rhombus;whiteSpace=wrap;html=1;labelBackgroundColor=none;fillColor=#FAE5C7;strokeColor=#0F8B8D;fontColor=#143642;" vertex="1" parent="VYQc9DKy9v42-T7aidAJ-22">
          <mxGeometry x="790" y="100" width="80" height="80" as="geometry" />
        </mxCell>
        <mxCell id="VYQc9DKy9v42-T7aidAJ-132" value="" style="edgeStyle=orthogonalEdgeStyle;rounded=0;orthogonalLoop=1;jettySize=auto;html=1;noEdgeStyle=1;orthogonal=1;labelBackgroundColor=none;fontColor=default;strokeColor=#A8201A;" edge="1" target="VYQc9DKy9v42-T7aidAJ-134" source="VYQc9DKy9v42-T7aidAJ-61" parent="VYQc9DKy9v42-T7aidAJ-22">
          <mxGeometry relative="1" as="geometry">
            <mxPoint x="1402" y="817.7777777777777" as="sourcePoint" />
            <Array as="points">
              <mxPoint x="1032" y="70" />
              <mxPoint x="1058" y="70" />
            </Array>
          </mxGeometry>
        </mxCell>
        <mxCell id="VYQc9DKy9v42-T7aidAJ-133" value="是" style="edgeLabel;html=1;align=center;verticalAlign=middle;resizable=0;points=[];labelBackgroundColor=none;fontColor=#143642;" vertex="1" connectable="0" parent="VYQc9DKy9v42-T7aidAJ-132">
          <mxGeometry x="0.16" y="-1" relative="1" as="geometry">
            <mxPoint as="offset" />
          </mxGeometry>
        </mxCell>
        <mxCell id="VYQc9DKy9v42-T7aidAJ-134" value="结束" style="whiteSpace=wrap;html=1;shape=ellipse;rounded=0;perimeter=ellipsePerimeter;aspect=fixed;labelBackgroundColor=none;fillColor=#FAE5C7;strokeColor=#0F8B8D;fontColor=#143642;" vertex="1" parent="VYQc9DKy9v42-T7aidAJ-22">
          <mxGeometry x="1070" y="30" width="80" height="80" as="geometry" />
        </mxCell>
        <mxCell id="VYQc9DKy9v42-T7aidAJ-135" value="" style="edgeStyle=orthogonalEdgeStyle;rounded=0;orthogonalLoop=1;jettySize=auto;html=1;exitX=1;exitY=0.5;exitDx=0;exitDy=0;entryX=0;entryY=0.5;entryDx=0;entryDy=0;noEdgeStyle=1;orthogonal=1;labelBackgroundColor=none;fontColor=default;strokeColor=#A8201A;" edge="1" target="VYQc9DKy9v42-T7aidAJ-136" source="VYQc9DKy9v42-T7aidAJ-129" parent="VYQc9DKy9v42-T7aidAJ-22">
          <mxGeometry relative="1" as="geometry">
            <mxPoint x="1454" y="764" as="sourcePoint" />
            <mxPoint x="1898" y="1347.7777777777778" as="targetPoint" />
            <Array as="points">
              <mxPoint x="882" y="157.5" />
              <mxPoint x="908" y="190" />
            </Array>
          </mxGeometry>
        </mxCell>
        <mxCell id="VYQc9DKy9v42-T7aidAJ-137" value="否" style="edgeLabel;html=1;align=center;verticalAlign=middle;resizable=0;points=[];labelBackgroundColor=none;fontColor=#143642;" vertex="1" connectable="0" parent="VYQc9DKy9v42-T7aidAJ-135">
          <mxGeometry x="0.069" y="4" relative="1" as="geometry">
            <mxPoint x="-1" as="offset" />
          </mxGeometry>
        </mxCell>
        <mxCell id="VYQc9DKy9v42-T7aidAJ-136" value="启动失败" style="whiteSpace=wrap;html=1;rounded=0;labelBackgroundColor=none;fillColor=#FAE5C7;strokeColor=#0F8B8D;fontColor=#143642;" vertex="1" parent="VYQc9DKy9v42-T7aidAJ-22">
          <mxGeometry x="930" y="150" width="80" height="80" as="geometry" />
        </mxCell>
        <mxCell id="VYQc9DKy9v42-T7aidAJ-138" value="" style="edgeStyle=orthogonalEdgeStyle;rounded=0;orthogonalLoop=1;jettySize=auto;html=1;exitX=1;exitY=0.5;exitDx=0;exitDy=0;entryX=0;entryY=0.5;entryDx=0;entryDy=0;noEdgeStyle=1;orthogonal=1;labelBackgroundColor=none;fontColor=default;strokeColor=#A8201A;" edge="1" target="VYQc9DKy9v42-T7aidAJ-140" source="VYQc9DKy9v42-T7aidAJ-136" parent="VYQc9DKy9v42-T7aidAJ-22">
          <mxGeometry relative="1" as="geometry">
            <mxPoint x="1384" y="700" as="sourcePoint" />
            <mxPoint x="1932" y="1667.7777777777778" as="targetPoint" />
            <Array as="points">
              <mxPoint x="1032" y="190" />
              <mxPoint x="1058" y="190" />
            </Array>
          </mxGeometry>
        </mxCell>
        <mxCell id="VYQc9DKy9v42-T7aidAJ-139" value="否" style="edgeLabel;html=1;align=center;verticalAlign=middle;resizable=0;points=[];labelBackgroundColor=none;fontColor=#143642;" vertex="1" connectable="0" parent="VYQc9DKy9v42-T7aidAJ-138">
          <mxGeometry x="0.069" y="4" relative="1" as="geometry">
            <mxPoint x="-1" as="offset" />
          </mxGeometry>
        </mxCell>
        <mxCell id="VYQc9DKy9v42-T7aidAJ-140" value="结束" style="whiteSpace=wrap;html=1;rounded=0;shape=ellipse;perimeter=ellipsePerimeter;aspect=fixed;labelBackgroundColor=none;fillColor=#FAE5C7;strokeColor=#0F8B8D;fontColor=#143642;" vertex="1" parent="VYQc9DKy9v42-T7aidAJ-22">
          <mxGeometry x="1070" y="150" width="80" height="80" as="geometry" />
        </mxCell>
        <mxCell id="VYQc9DKy9v42-T7aidAJ-87" value="Horizontal Flow Layout" style="swimlane;html=1;startSize=20;horizontal=0;childLayout=flowLayout;flowOrientation=west;resizable=0;interRankCellSpacing=50;containerType=tree;fontSize=12;labelBackgroundColor=none;fillColor=#FAE5C7;strokeColor=#0F8B8D;fontColor=#143642;" vertex="1" parent="1">
          <mxGeometry x="34" y="600" width="1050" height="180" as="geometry" />
        </mxCell>
        <mxCell id="VYQc9DKy9v42-T7aidAJ-88" value="发送消息" style="whiteSpace=wrap;html=1;labelBackgroundColor=none;fillColor=#FAE5C7;strokeColor=#0F8B8D;fontColor=#143642;" vertex="1" parent="VYQc9DKy9v42-T7aidAJ-87">
          <mxGeometry x="40" y="89.25925925925925" width="100" height="40" as="geometry" />
        </mxCell>
        <mxCell id="VYQc9DKy9v42-T7aidAJ-89" value="" style="edgeStyle=orthogonalEdgeStyle;rounded=0;orthogonalLoop=1;jettySize=auto;html=1;noEdgeStyle=1;orthogonal=1;labelBackgroundColor=none;fontColor=default;strokeColor=#A8201A;" edge="1" parent="VYQc9DKy9v42-T7aidAJ-87" source="VYQc9DKy9v42-T7aidAJ-88" target="VYQc9DKy9v42-T7aidAJ-90">
          <mxGeometry relative="1" as="geometry">
            <Array as="points">
              <mxPoint x="152" y="109.25925925925925" />
              <mxPoint x="178" y="109.25925925925925" />
            </Array>
          </mxGeometry>
        </mxCell>
        <mxCell id="VYQc9DKy9v42-T7aidAJ-153" style="edgeStyle=orthogonalEdgeStyle;rounded=0;orthogonalLoop=1;jettySize=auto;html=1;exitX=1;exitY=0.5;exitDx=0;exitDy=0;entryX=0;entryY=0.75;entryDx=0;entryDy=0;strokeColor=#A8201A;fontColor=#143642;fillColor=#FAE5C7;noEdgeStyle=1;orthogonal=1;" edge="1" parent="VYQc9DKy9v42-T7aidAJ-87" source="VYQc9DKy9v42-T7aidAJ-90" target="VYQc9DKy9v42-T7aidAJ-147">
          <mxGeometry relative="1" as="geometry">
            <Array as="points">
              <mxPoint x="302" y="116.75925925925925" />
              <mxPoint x="315" y="150" />
              <mxPoint x="465" y="150" />
              <mxPoint x="465" y="150" />
              <mxPoint x="615" y="150" />
              <mxPoint x="615" y="150" />
              <mxPoint x="765" y="150" />
              <mxPoint x="778" y="142.5" />
            </Array>
          </mxGeometry>
        </mxCell>
        <mxCell id="VYQc9DKy9v42-T7aidAJ-162" value="否" style="edgeLabel;html=1;align=center;verticalAlign=middle;resizable=0;points=[];fontColor=#143642;" vertex="1" connectable="0" parent="VYQc9DKy9v42-T7aidAJ-153">
          <mxGeometry x="-0.5978" y="3" relative="1" as="geometry">
            <mxPoint as="offset" />
          </mxGeometry>
        </mxCell>
        <mxCell id="VYQc9DKy9v42-T7aidAJ-90" value="是否有异常" style="whiteSpace=wrap;html=1;labelBackgroundColor=none;fillColor=#FAE5C7;strokeColor=#0F8B8D;fontColor=#143642;" vertex="1" parent="VYQc9DKy9v42-T7aidAJ-87">
          <mxGeometry x="190" y="89.25925925925925" width="100" height="40" as="geometry" />
        </mxCell>
        <mxCell id="VYQc9DKy9v42-T7aidAJ-91" value="" style="edgeStyle=orthogonalEdgeStyle;rounded=0;orthogonalLoop=1;jettySize=auto;html=1;noEdgeStyle=1;orthogonal=1;labelBackgroundColor=none;fontColor=default;strokeColor=#A8201A;" edge="1" parent="VYQc9DKy9v42-T7aidAJ-87" source="VYQc9DKy9v42-T7aidAJ-90" target="VYQc9DKy9v42-T7aidAJ-97">
          <mxGeometry relative="1" as="geometry">
            <mxPoint x="4640" y="2735" as="sourcePoint" />
            <Array as="points">
              <mxPoint x="302" y="101.75925925925925" />
              <mxPoint x="328" y="70" />
            </Array>
          </mxGeometry>
        </mxCell>
        <mxCell id="VYQc9DKy9v42-T7aidAJ-110" value="是" style="edgeLabel;html=1;align=center;verticalAlign=middle;resizable=0;points=[];labelBackgroundColor=none;fontColor=#143642;" vertex="1" connectable="0" parent="VYQc9DKy9v42-T7aidAJ-91">
          <mxGeometry x="0.0369" relative="1" as="geometry">
            <mxPoint as="offset" />
          </mxGeometry>
        </mxCell>
        <mxCell id="VYQc9DKy9v42-T7aidAJ-92" value="创建topic" style="whiteSpace=wrap;html=1;shape=label;rounded=0;labelBackgroundColor=none;fillColor=#FAE5C7;strokeColor=#0F8B8D;fontColor=#143642;" vertex="1" parent="VYQc9DKy9v42-T7aidAJ-87">
          <mxGeometry x="490" y="60" width="100" height="60" as="geometry" />
        </mxCell>
        <mxCell id="VYQc9DKy9v42-T7aidAJ-96" value="" style="edgeStyle=orthogonalEdgeStyle;rounded=0;orthogonalLoop=1;jettySize=auto;html=1;noEdgeStyle=1;orthogonal=1;labelBackgroundColor=none;fontColor=default;strokeColor=#A8201A;" edge="1" parent="VYQc9DKy9v42-T7aidAJ-87" source="VYQc9DKy9v42-T7aidAJ-97" target="VYQc9DKy9v42-T7aidAJ-92">
          <mxGeometry relative="1" as="geometry">
            <mxPoint x="4390" y="2565" as="sourcePoint" />
            <Array as="points">
              <mxPoint x="452" y="92.5" />
              <mxPoint x="478" y="90" />
            </Array>
          </mxGeometry>
        </mxCell>
        <mxCell id="VYQc9DKy9v42-T7aidAJ-113" value="是" style="edgeLabel;html=1;align=center;verticalAlign=middle;resizable=0;points=[];labelBackgroundColor=none;fontColor=#143642;" vertex="1" connectable="0" parent="VYQc9DKy9v42-T7aidAJ-96">
          <mxGeometry x="0.1544" relative="1" as="geometry">
            <mxPoint x="1" as="offset" />
          </mxGeometry>
        </mxCell>
        <mxCell id="VYQc9DKy9v42-T7aidAJ-97" value="是否是topic不存在错误" style="whiteSpace=wrap;html=1;shape=rhombus;rounded=0;perimeter=rhombusPerimeter;labelBackgroundColor=none;fillColor=#FAE5C7;strokeColor=#0F8B8D;fontColor=#143642;" vertex="1" parent="VYQc9DKy9v42-T7aidAJ-87">
          <mxGeometry x="340" y="20" width="100" height="100" as="geometry" />
        </mxCell>
        <mxCell id="VYQc9DKy9v42-T7aidAJ-106" value="" style="edgeStyle=orthogonalEdgeStyle;rounded=0;orthogonalLoop=1;jettySize=auto;html=1;noEdgeStyle=1;orthogonal=1;labelBackgroundColor=none;fontColor=default;strokeColor=#A8201A;" edge="1" target="VYQc9DKy9v42-T7aidAJ-107" source="VYQc9DKy9v42-T7aidAJ-97" parent="VYQc9DKy9v42-T7aidAJ-87">
          <mxGeometry relative="1" as="geometry">
            <mxPoint x="3100" y="2025" as="sourcePoint" />
            <Array as="points">
              <mxPoint x="452" y="47.5" />
              <mxPoint x="465" y="30" />
              <mxPoint x="615" y="30" />
              <mxPoint x="615" y="30" />
              <mxPoint x="765" y="30" />
              <mxPoint x="778" y="35" />
            </Array>
          </mxGeometry>
        </mxCell>
        <mxCell id="VYQc9DKy9v42-T7aidAJ-114" value="否" style="edgeLabel;html=1;align=center;verticalAlign=middle;resizable=0;points=[];labelBackgroundColor=none;fontColor=#143642;" vertex="1" connectable="0" parent="VYQc9DKy9v42-T7aidAJ-106">
          <mxGeometry x="-0.1431" y="-1" relative="1" as="geometry">
            <mxPoint as="offset" />
          </mxGeometry>
        </mxCell>
        <mxCell id="VYQc9DKy9v42-T7aidAJ-107" value="抛出异常" style="whiteSpace=wrap;html=1;shape=label;rounded=0;labelBackgroundColor=none;fillColor=#FAE5C7;strokeColor=#0F8B8D;fontColor=#143642;" vertex="1" parent="VYQc9DKy9v42-T7aidAJ-87">
          <mxGeometry x="790" y="20" width="100" height="50" as="geometry" />
        </mxCell>
        <mxCell id="VYQc9DKy9v42-T7aidAJ-111" value="" style="edgeStyle=orthogonalEdgeStyle;rounded=0;orthogonalLoop=1;jettySize=auto;html=1;noEdgeStyle=1;orthogonal=1;labelBackgroundColor=none;fontColor=default;strokeColor=#A8201A;" edge="1" target="VYQc9DKy9v42-T7aidAJ-158" source="VYQc9DKy9v42-T7aidAJ-107" parent="VYQc9DKy9v42-T7aidAJ-87">
          <mxGeometry relative="1" as="geometry">
            <mxPoint x="2730" y="1788" as="sourcePoint" />
            <Array as="points">
              <mxPoint x="902" y="45" />
              <mxPoint x="928" y="69.79249999999999" />
            </Array>
          </mxGeometry>
        </mxCell>
        <mxCell id="VYQc9DKy9v42-T7aidAJ-142" value="" style="edgeStyle=orthogonalEdgeStyle;rounded=0;orthogonalLoop=1;jettySize=auto;html=1;noEdgeStyle=1;orthogonal=1;labelBackgroundColor=none;fontColor=default;strokeColor=#A8201A;" edge="1" target="VYQc9DKy9v42-T7aidAJ-144" source="VYQc9DKy9v42-T7aidAJ-92" parent="VYQc9DKy9v42-T7aidAJ-87">
          <mxGeometry relative="1" as="geometry">
            <mxPoint x="1652" y="1248" as="sourcePoint" />
            <Array as="points">
              <mxPoint x="602" y="90" />
              <mxPoint x="628" y="90" />
            </Array>
          </mxGeometry>
        </mxCell>
        <mxCell id="VYQc9DKy9v42-T7aidAJ-144" value="是否成功" style="whiteSpace=wrap;html=1;shape=rhombus;rounded=0;labelBackgroundColor=none;fillColor=#FAE5C7;strokeColor=#0F8B8D;fontColor=#143642;perimeter=rhombusPerimeter;" vertex="1" parent="VYQc9DKy9v42-T7aidAJ-87">
          <mxGeometry x="640" y="60" width="100" height="60" as="geometry" />
        </mxCell>
        <mxCell id="VYQc9DKy9v42-T7aidAJ-145" value="" style="edgeStyle=orthogonalEdgeStyle;rounded=0;orthogonalLoop=1;jettySize=auto;html=1;noEdgeStyle=1;orthogonal=1;labelBackgroundColor=none;fontColor=default;strokeColor=#A8201A;" edge="1" target="VYQc9DKy9v42-T7aidAJ-147" source="VYQc9DKy9v42-T7aidAJ-144" parent="VYQc9DKy9v42-T7aidAJ-87">
          <mxGeometry relative="1" as="geometry">
            <mxPoint x="1704" y="1210" as="sourcePoint" />
            <Array as="points">
              <mxPoint x="752" y="102.5" />
              <mxPoint x="778" y="117.5" />
            </Array>
          </mxGeometry>
        </mxCell>
        <mxCell id="VYQc9DKy9v42-T7aidAJ-146" value="是" style="edgeLabel;html=1;align=center;verticalAlign=middle;resizable=0;points=[];labelBackgroundColor=none;fontColor=#143642;" vertex="1" connectable="0" parent="VYQc9DKy9v42-T7aidAJ-145">
          <mxGeometry x="0.1544" relative="1" as="geometry">
            <mxPoint x="1" as="offset" />
          </mxGeometry>
        </mxCell>
        <mxCell id="VYQc9DKy9v42-T7aidAJ-147" value="发送消息" style="whiteSpace=wrap;html=1;shape=label;rounded=0;labelBackgroundColor=none;fillColor=#FAE5C7;strokeColor=#0F8B8D;fontColor=#143642;" vertex="1" parent="VYQc9DKy9v42-T7aidAJ-87">
          <mxGeometry x="790" y="100" width="100" height="60" as="geometry" />
        </mxCell>
        <mxCell id="VYQc9DKy9v42-T7aidAJ-148" value="" style="edgeStyle=orthogonalEdgeStyle;rounded=0;orthogonalLoop=1;jettySize=auto;html=1;noEdgeStyle=1;orthogonal=1;labelBackgroundColor=none;fontColor=default;strokeColor=#A8201A;" edge="1" target="VYQc9DKy9v42-T7aidAJ-107" source="VYQc9DKy9v42-T7aidAJ-144" parent="VYQc9DKy9v42-T7aidAJ-87">
          <mxGeometry relative="1" as="geometry">
            <mxPoint x="1584" y="1150" as="sourcePoint" />
            <Array as="points">
              <mxPoint x="752" y="77.5" />
              <mxPoint x="778" y="55" />
            </Array>
          </mxGeometry>
        </mxCell>
        <mxCell id="VYQc9DKy9v42-T7aidAJ-149" value="否" style="edgeLabel;html=1;align=center;verticalAlign=middle;resizable=0;points=[];labelBackgroundColor=none;fontColor=#143642;" vertex="1" connectable="0" parent="VYQc9DKy9v42-T7aidAJ-148">
          <mxGeometry x="0.1544" relative="1" as="geometry">
            <mxPoint x="1" as="offset" />
          </mxGeometry>
        </mxCell>
        <mxCell id="VYQc9DKy9v42-T7aidAJ-156" value="" style="edgeStyle=orthogonalEdgeStyle;rounded=0;orthogonalLoop=1;jettySize=auto;html=1;noEdgeStyle=1;orthogonal=1;labelBackgroundColor=none;fontColor=default;strokeColor=#A8201A;" edge="1" target="VYQc9DKy9v42-T7aidAJ-158" source="VYQc9DKy9v42-T7aidAJ-147" parent="VYQc9DKy9v42-T7aidAJ-87">
          <mxGeometry relative="1" as="geometry">
            <mxPoint x="1313" y="943" as="sourcePoint" />
            <Array as="points">
              <mxPoint x="902" y="130" />
              <mxPoint x="928" y="105.20749999999998" />
            </Array>
          </mxGeometry>
        </mxCell>
        <mxCell id="VYQc9DKy9v42-T7aidAJ-158" value="结束" style="whiteSpace=wrap;html=1;shape=ellipse;rounded=0;labelBackgroundColor=none;fillColor=#FAE5C7;strokeColor=#0F8B8D;fontColor=#143642;perimeter=ellipsePerimeter;" vertex="1" parent="VYQc9DKy9v42-T7aidAJ-87">
          <mxGeometry x="940" y="47.085" width="89.81" height="80.83" as="geometry" />
        </mxCell>
      </root>
    </mxGraphModel>
  </diagram>
</mxfile>
